<svg width="59" height="58" viewBox="0 0 59 58" fill="none" xmlns="http://www.w3.org/2000/svg">
<g id="explore_FILL0_wght400_GRAD0_opsz48 1" clip-path="url(#clip0_23_666)">
<path id="Vector" d="M49.1711 35.314C48.6464 35.314 48.2102 35.1381 47.8625 34.7862C47.5148 34.4344 47.3409 33.9984 47.3409 33.4783V27.3591H41.2045C40.683 27.3591 40.2457 27.1822 39.8929 26.8283C39.5401 26.4743 39.3636 26.0358 39.3636 25.5126C39.3636 24.9895 39.5401 24.5545 39.8929 24.2077C40.2457 23.861 40.683 23.6876 41.2045 23.6876H47.3409V17.5684C47.3409 17.0483 47.5184 16.6123 47.8732 16.2605C48.2282 15.9086 48.6679 15.7327 49.1926 15.7327C49.7172 15.7327 50.1534 15.9086 50.5011 16.2605C50.8489 16.6123 51.0227 17.0483 51.0227 17.5684V23.6876H57.1591C57.6807 23.6876 58.1179 23.8645 58.4707 24.2184C58.8236 24.5724 59 25.0109 59 25.5341C59 26.0572 58.8236 26.4922 58.4707 26.839C58.1179 27.1857 57.6807 27.3591 57.1591 27.3591H51.0227V33.4783C51.0227 33.9984 50.8453 34.4344 50.4904 34.7862C50.1355 35.1381 49.6957 35.314 49.1711 35.314ZM24.6364 30.3575C21.9364 30.3575 19.7273 29.5008 18.0091 27.7874C16.2909 26.0741 15.4318 23.8712 15.4318 21.1787C15.4318 18.4863 16.2909 16.2834 18.0091 14.57C19.7273 12.8567 21.9364 12 24.6364 12C27.3364 12 29.5455 12.8567 31.2636 14.57C32.9818 16.2834 33.8409 18.4863 33.8409 21.1787C33.8409 23.8712 32.9818 26.0741 31.2636 27.7874C29.5455 29.5008 27.3364 30.3575 24.6364 30.3575ZM6.84091 50C6.31932 50 5.8821 49.8241 5.52926 49.4722C5.17642 49.1204 5 48.6844 5 48.1642V44.248C5 42.8202 5.36818 41.525 6.10455 40.3623C6.84091 39.1997 7.86364 38.3328 9.17273 37.7617C12.2409 36.4155 14.9683 35.467 17.3548 34.9163C19.7414 34.3655 22.1653 34.0902 24.6264 34.0902C27.0876 34.0902 29.5148 34.3655 31.908 34.9163C34.3011 35.467 37.0114 36.4155 40.0386 37.7617C41.3477 38.3736 42.3807 39.2507 43.1375 40.3929C43.8943 41.5352 44.2727 42.8202 44.2727 44.248V48.1642C44.2727 48.6844 44.0963 49.1204 43.7435 49.4722C43.3906 49.8241 42.9534 50 42.4318 50H6.84091ZM8.68182 46.3285H40.5909V44.248C40.5909 43.5953 40.4273 42.9732 40.1 42.3816C39.7727 41.7901 39.2614 41.3516 38.5659 41.066C35.7023 39.679 33.258 38.7815 31.233 38.3736C29.208 37.9656 27.0091 37.7617 24.6364 37.7617C22.2636 37.7617 20.0648 37.9758 18.0398 38.4042C16.0148 38.8325 13.55 39.7198 10.6455 41.066C10.0318 41.3516 9.55114 41.7901 9.20341 42.3816C8.85568 42.9732 8.68182 43.5953 8.68182 44.248V46.3285ZM24.6364 26.686C26.2318 26.686 27.5511 26.1659 28.5943 25.1256C29.6375 24.0853 30.1591 22.7697 30.1591 21.1787C30.1591 19.5878 29.6375 18.2721 28.5943 17.2319C27.5511 16.1916 26.2318 15.6715 24.6364 15.6715C23.0409 15.6715 21.7216 16.1916 20.6784 17.2319C19.6352 18.2721 19.1136 19.5878 19.1136 21.1787C19.1136 22.7697 19.6352 24.0853 20.6784 25.1256C21.7216 26.1659 23.0409 26.686 24.6364 26.686Z" fill="white"/>
</g>
<defs>
<clipPath id="clip0_23_666">
<rect width="58" height="58" fill="white" transform="translate(0.5)"/>
</clipPath>
</defs>
</svg>
