<svg width="59" height="58" viewBox="0 0 59 58" fill="none" xmlns="http://www.w3.org/2000/svg">
<g id="explore_FILL0_wght400_GRAD0_opsz48 1">
<path id="Vector" d="M29.4999 31.4166C28.8152 31.4166 28.2412 31.185 27.778 30.7219C27.3148 30.2587 27.0833 29.6847 27.0833 29C27.0833 28.3153 27.3148 27.7413 27.778 27.2781C28.2412 26.8149 28.8152 26.5833 29.4999 26.5833C30.1846 26.5833 30.7586 26.8149 31.2218 27.2781C31.685 27.7413 31.9166 28.3153 31.9166 29C31.9166 29.6847 31.685 30.2587 31.2218 30.7219C30.7586 31.185 30.1846 31.4166 29.4999 31.4166ZM29.4999 53.1666C26.1971 53.1666 23.0756 52.5323 20.1353 51.2635C17.1951 49.9948 14.6273 48.2628 12.4322 46.0677C10.2371 43.8725 8.50513 41.3048 7.23638 38.3646C5.96763 35.4243 5.33325 32.3028 5.33325 29C5.33325 25.6569 5.96763 22.5153 7.23638 19.575C8.50513 16.6347 10.2371 14.0771 12.4322 11.9021C14.6273 9.72706 17.1951 8.00519 20.1353 6.73644C23.0756 5.46769 26.1971 4.83331 29.4999 4.83331C32.843 4.83331 35.9846 5.46769 38.9249 6.73644C41.8652 8.00519 44.4228 9.72706 46.5978 11.9021C48.7728 14.0771 50.4947 16.6347 51.7635 19.575C53.0322 22.5153 53.6666 25.6569 53.6666 29C53.6666 32.3028 53.0322 35.4243 51.7635 38.3646C50.4947 41.3048 48.7728 43.8725 46.5978 46.0677C44.4228 48.2628 41.8652 49.9948 38.9249 51.2635C35.9846 52.5323 32.843 53.1666 29.4999 53.1666ZM29.4999 49.5416C35.2194 49.5416 40.0728 47.5378 44.0603 43.5302C48.0478 39.5225 50.0416 34.6791 50.0416 29C50.0416 23.2805 48.0478 18.4271 44.0603 14.4396C40.0728 10.4521 35.2194 8.45831 29.4999 8.45831C23.8208 8.45831 18.9773 10.4521 14.9697 14.4396C10.9621 18.4271 8.95825 23.2805 8.95825 29C8.95825 34.6791 10.9621 39.5225 14.9697 43.5302C18.9773 47.5378 23.8208 49.5416 29.4999 49.5416ZM18.8062 40.9021L33.3666 33.7729C33.568 33.6923 33.7392 33.5816 33.8801 33.4406C34.0211 33.2996 34.1319 33.1285 34.2124 32.9271L41.3416 18.3666C41.543 17.9639 41.4926 17.6114 41.1905 17.3094C40.8885 17.0073 40.536 16.9569 40.1333 17.1583L25.5728 24.2875C25.3714 24.368 25.2003 24.4788 25.0593 24.6198C24.9183 24.7607 24.8076 24.9319 24.727 25.1333L17.5978 39.6937C17.3964 40.0965 17.4468 40.4489 17.7489 40.751C18.051 41.0531 18.4034 41.1035 18.8062 40.9021Z" fill="white"/>
</g>
</svg>
