<svg width="21" height="21" viewBox="0 0 21 21" fill="none" xmlns="http://www.w3.org/2000/svg">
<g id="icone">
<path id="Vector" d="M10.5 13.1906C10.4125 13.1906 10.3322 13.176 10.2593 13.1469C10.1864 13.1177 10.1135 13.0667 10.0406 12.9938L5.70933 8.6625C5.57808 8.53125 5.51245 8.37813 5.51245 8.20313C5.51245 8.02813 5.57808 7.875 5.70933 7.74375C5.84058 7.6125 5.99735 7.54688 6.17964 7.54688C6.36193 7.54688 6.5187 7.6125 6.64995 7.74375L10.5 11.5938L14.35 7.74375C14.4812 7.6125 14.6343 7.54688 14.8093 7.54688C14.9843 7.54688 15.1375 7.6125 15.2687 7.74375C15.4 7.875 15.4656 8.03177 15.4656 8.21406C15.4656 8.39635 15.4 8.55313 15.2687 8.68438L10.9593 12.9938C10.8864 13.0667 10.8135 13.1177 10.7406 13.1469C10.6677 13.176 10.5875 13.1906 10.5 13.1906Z" fill="#F72585"/>
</g>
</svg>
