<svg width="14" height="13" viewBox="0 0 14 13" fill="none" xmlns="http://www.w3.org/2000/svg">
<path d="M5.19375 9.17397C3.91684 9.17397 2.83615 8.73126 1.95169 7.84584C1.06723 6.96043 0.625 5.89202 0.625 4.64063C0.625 3.38924 1.06771 2.32084 1.95313 1.43542C2.83854 0.550008 3.9099 0.1073 5.16719 0.1073C6.42448 0.1073 7.49288 0.550008 8.3724 1.43542C9.25191 2.32084 9.69167 3.39013 9.69167 4.64329C9.69167 5.14916 9.60903 5.6382 9.44375 6.11043C9.27847 6.58265 9.03056 7.02536 8.7 7.43855L12.9854 11.6886C13.0917 11.7896 13.1448 11.9181 13.1448 12.0742C13.1448 12.2303 13.0917 12.3615 12.9854 12.4677C12.8792 12.574 12.748 12.6271 12.5919 12.6271C12.4358 12.6271 12.3073 12.574 12.2063 12.4677L7.93854 8.20001C7.58438 8.50695 7.17142 8.74602 6.69968 8.9172C6.22795 9.08838 5.72597 9.17397 5.19375 9.17397ZM5.17604 8.11147C6.13524 8.11147 6.95056 7.77206 7.62201 7.09324C8.29345 6.41442 8.62917 5.59688 8.62917 4.64063C8.62917 3.68438 8.29345 2.86685 7.62201 2.18803C6.95056 1.50921 6.13524 1.1698 5.17604 1.1698C4.20701 1.1698 3.38332 1.50921 2.70499 2.18803C2.02666 2.86685 1.6875 3.68438 1.6875 4.64063C1.6875 5.59688 2.02666 6.41442 2.70499 7.09324C3.38332 7.77206 4.20701 8.11147 5.17604 8.11147Z" fill="white"/>
</svg>
