<svg width="24" height="24" viewBox="0 0 24 24" fill="none" xmlns="http://www.w3.org/2000/svg">
<g id="travel_explore_FILL0_wght400_GRAD0_opsz48 1">
<path id="Vector" d="M11.45 21.975C10.1333 21.9083 8.9 21.6 7.75 21.05C6.6 20.5 5.6 19.7792 4.75 18.8875C3.9 17.9958 3.22917 16.9603 2.7375 15.7808C2.24583 14.6013 2 13.3411 2 12C2 10.6167 2.2625 9.31667 2.7875 8.1C3.3125 6.88333 4.025 5.825 4.925 4.925C5.825 4.025 6.88333 3.3125 8.1 2.7875C9.31667 2.2625 10.6167 2 12 2C14.4833 2 16.6417 2.78333 18.475 4.35C20.3083 5.91667 21.4333 7.88333 21.85 10.25H20.325C20.0417 8.85 19.45 7.6 18.55 6.5C17.65 5.4 16.525 4.575 15.175 4.025V4.475C15.175 5.05833 14.975 5.56667 14.575 6C14.175 6.43333 13.6833 6.65 13.1 6.65H10.925V8.825C10.925 9.10125 10.8125 9.33281 10.5875 9.51967C10.3625 9.70656 10.1083 9.8 9.825 9.8H7.75V12H10.5V15.125H8.825L3.725 10.025C3.64167 10.3583 3.58333 10.6889 3.55 11.0167C3.51667 11.3444 3.5 11.6722 3.5 12C3.5 14.25 4.25833 16.1917 5.775 17.825C7.29167 19.4583 9.18333 20.3417 11.45 20.475V21.975ZM21.25 21.325L17.9 17.975C17.55 18.225 17.1708 18.4167 16.7625 18.55C16.3542 18.6833 15.937 18.75 15.5109 18.75C14.3273 18.75 13.3212 18.3365 12.4928 17.5095C11.6643 16.6826 11.25 15.6784 11.25 14.4971C11.25 13.3157 11.6635 12.3125 12.4905 11.4875C13.3174 10.6625 14.3216 10.25 15.5029 10.25C16.6843 10.25 17.6875 10.6643 18.5125 11.4928C19.3375 12.3212 19.75 13.3273 19.75 14.5109C19.75 14.937 19.6792 15.3542 19.5375 15.7625C19.3958 16.1708 19.2083 16.5583 18.975 16.925L22.325 20.25L21.25 21.325ZM15.4965 17.25C16.2655 17.25 16.9167 16.9845 17.45 16.4535C17.9833 15.9225 18.25 15.2725 18.25 14.5035C18.25 13.7345 17.9845 13.0833 17.4535 12.55C16.9225 12.0167 16.2725 11.75 15.5035 11.75C14.7345 11.75 14.0833 12.0155 13.55 12.5465C13.0167 13.0775 12.75 13.7275 12.75 14.4965C12.75 15.2655 13.0155 15.9167 13.5465 16.45C14.0775 16.9833 14.7275 17.25 15.4965 17.25Z" fill="white"/>
</g>
</svg>
