<svg width="59" height="58" viewBox="0 0 59 58" fill="none" xmlns="http://www.w3.org/2000/svg">
<g id="explore_FILL0_wght400_GRAD0_opsz48 1">
<path id="Vector" d="M29.4375 32.995L24.5 28.0139C24.125 27.6356 23.6667 27.4464 23.125 27.4464C22.5833 27.4464 22.125 27.6356 21.75 28.0139C21.375 28.3922 21.1875 28.8511 21.1875 29.3905C21.1875 29.9299 21.375 30.3958 21.75 30.7881L27.9375 37.0933C28.3125 37.4716 28.75 37.6608 29.25 37.6608C29.75 37.6608 30.1875 37.4716 30.5625 37.0933L42.1875 25.3657C42.5625 24.9846 42.75 24.532 42.75 24.008C42.75 23.484 42.5729 23.0538 42.2188 22.7175C41.8646 22.3813 41.4167 22.2236 40.875 22.2446C40.3333 22.2657 39.8958 22.4443 39.5625 22.7806L29.4375 32.995ZM32 55C31.7783 55 31.5725 54.979 31.3825 54.9369C31.1925 54.8949 31.0025 54.8319 30.8125 54.7478C25.0208 52.7722 20.4375 49.2308 17.0625 44.1236C13.6875 39.0164 12 33.4131 12 27.3136V14.9622C12 14.1527 12.2266 13.4242 12.6797 12.7767C13.1328 12.1291 13.7188 11.6596 14.4375 11.3682L30.6875 5.25221C31.1458 5.08407 31.5833 5 32 5C32.4167 5 32.8542 5.08407 33.3125 5.25221L49.5625 11.3682C50.2812 11.6596 50.8672 12.1291 51.3203 12.7767C51.7734 13.4242 52 14.1527 52 14.9622V27.3136C52 33.4131 50.3125 39.0164 46.9375 44.1236C43.5625 49.2308 38.9792 52.7722 33.1875 54.7478C32.9975 54.8319 32.8075 54.8949 32.6175 54.9369C32.4275 54.979 32.2217 55 32 55ZM32 51.2799C36.7917 49.6826 40.6979 46.6667 43.7188 42.232C46.7396 37.7974 48.25 32.8268 48.25 27.3203V14.9622L32 8.7831L15.75 14.9622V27.3203C15.75 32.8268 17.2604 37.7974 20.2812 42.232C23.3021 46.6667 27.2083 49.6826 32 51.2799Z" fill="white"/>
</g>
</svg>
